<mxfile host="app.diagrams.net" agent="Mozilla/5.0 (Windows NT 10.0; Win64; x64) AppleWebKit/537.36 (KHTML, like Gecko) Chrome/134.0.0.0 Safari/537.36" version="26.1.0">
  <diagram name="Page-1" id="GMJqb3cJSp80AfWqH48q">
    <mxGraphModel dx="2327" dy="1915" grid="1" gridSize="10" guides="1" tooltips="1" connect="1" arrows="1" fold="1" page="1" pageScale="1" pageWidth="827" pageHeight="1169" math="0" shadow="0">
      <root>
        <mxCell id="0" />
        <mxCell id="1" parent="0" />
        <mxCell id="MFraPQOtkHAgBpR5GQGO-45" style="rounded=0;orthogonalLoop=1;jettySize=auto;html=1;entryX=0.5;entryY=0;entryDx=0;entryDy=0;shadow=0;endArrow=none;startFill=0;" edge="1" parent="1" source="MFraPQOtkHAgBpR5GQGO-1" target="MFraPQOtkHAgBpR5GQGO-44">
          <mxGeometry relative="1" as="geometry" />
        </mxCell>
        <mxCell id="MFraPQOtkHAgBpR5GQGO-1" value="User" style="whiteSpace=wrap;html=1;align=center;shadow=0;" vertex="1" parent="1">
          <mxGeometry x="100" y="140" width="100" height="40" as="geometry" />
        </mxCell>
        <mxCell id="MFraPQOtkHAgBpR5GQGO-52" style="rounded=0;orthogonalLoop=1;jettySize=auto;html=1;shadow=0;endArrow=none;startFill=0;" edge="1" parent="1" source="MFraPQOtkHAgBpR5GQGO-2" target="MFraPQOtkHAgBpR5GQGO-51">
          <mxGeometry relative="1" as="geometry" />
        </mxCell>
        <mxCell id="MFraPQOtkHAgBpR5GQGO-2" value="Book" style="whiteSpace=wrap;html=1;align=center;shadow=0;" vertex="1" parent="1">
          <mxGeometry x="650" y="140" width="100" height="40" as="geometry" />
        </mxCell>
        <mxCell id="MFraPQOtkHAgBpR5GQGO-3" value="Log" style="whiteSpace=wrap;html=1;align=center;shadow=0;" vertex="1" parent="1">
          <mxGeometry x="100" y="390" width="100" height="40" as="geometry" />
        </mxCell>
        <mxCell id="MFraPQOtkHAgBpR5GQGO-4" value="Category" style="whiteSpace=wrap;html=1;align=center;shadow=0;" vertex="1" parent="1">
          <mxGeometry x="650" y="390" width="100" height="40" as="geometry" />
        </mxCell>
        <mxCell id="MFraPQOtkHAgBpR5GQGO-5" value="&lt;span style=&quot;border-bottom: 1px dotted&quot;&gt;UserId&lt;/span&gt;" style="ellipse;whiteSpace=wrap;html=1;align=center;shadow=0;" vertex="1" parent="1">
          <mxGeometry x="-240" y="-30" width="100" height="40" as="geometry" />
        </mxCell>
        <mxCell id="MFraPQOtkHAgBpR5GQGO-14" style="rounded=0;orthogonalLoop=1;jettySize=auto;html=1;entryX=0.25;entryY=0;entryDx=0;entryDy=0;shadow=0;endArrow=none;startFill=0;" edge="1" parent="1" source="MFraPQOtkHAgBpR5GQGO-6" target="MFraPQOtkHAgBpR5GQGO-1">
          <mxGeometry relative="1" as="geometry" />
        </mxCell>
        <mxCell id="MFraPQOtkHAgBpR5GQGO-6" value="UserName" style="ellipse;whiteSpace=wrap;html=1;align=center;shadow=0;" vertex="1" parent="1">
          <mxGeometry x="-130" y="-30" width="100" height="40" as="geometry" />
        </mxCell>
        <mxCell id="MFraPQOtkHAgBpR5GQGO-13" style="rounded=0;orthogonalLoop=1;jettySize=auto;html=1;entryX=0.25;entryY=0;entryDx=0;entryDy=0;exitX=1;exitY=1;exitDx=0;exitDy=0;shadow=0;endArrow=none;startFill=0;" edge="1" parent="1" source="MFraPQOtkHAgBpR5GQGO-7" target="MFraPQOtkHAgBpR5GQGO-1">
          <mxGeometry relative="1" as="geometry" />
        </mxCell>
        <mxCell id="MFraPQOtkHAgBpR5GQGO-7" value="Password" style="ellipse;whiteSpace=wrap;html=1;align=center;shadow=0;" vertex="1" parent="1">
          <mxGeometry x="-20" y="-30" width="100" height="40" as="geometry" />
        </mxCell>
        <mxCell id="MFraPQOtkHAgBpR5GQGO-12" style="rounded=0;orthogonalLoop=1;jettySize=auto;html=1;entryX=0.5;entryY=0;entryDx=0;entryDy=0;shadow=0;endArrow=none;startFill=0;" edge="1" parent="1" source="MFraPQOtkHAgBpR5GQGO-8" target="MFraPQOtkHAgBpR5GQGO-1">
          <mxGeometry relative="1" as="geometry" />
        </mxCell>
        <mxCell id="MFraPQOtkHAgBpR5GQGO-8" value="Role" style="ellipse;whiteSpace=wrap;html=1;align=center;shadow=0;" vertex="1" parent="1">
          <mxGeometry x="90" y="-30" width="100" height="40" as="geometry" />
        </mxCell>
        <mxCell id="MFraPQOtkHAgBpR5GQGO-16" style="rounded=0;orthogonalLoop=1;jettySize=auto;html=1;entryX=0;entryY=0;entryDx=0;entryDy=0;shadow=0;endArrow=none;startFill=0;" edge="1" parent="1" source="MFraPQOtkHAgBpR5GQGO-9" target="MFraPQOtkHAgBpR5GQGO-1">
          <mxGeometry relative="1" as="geometry" />
        </mxCell>
        <mxCell id="MFraPQOtkHAgBpR5GQGO-9" value="Phone" style="ellipse;whiteSpace=wrap;html=1;align=center;shadow=0;" vertex="1" parent="1">
          <mxGeometry x="-240" y="60" width="100" height="40" as="geometry" />
        </mxCell>
        <mxCell id="MFraPQOtkHAgBpR5GQGO-17" style="rounded=0;orthogonalLoop=1;jettySize=auto;html=1;entryX=0;entryY=0.25;entryDx=0;entryDy=0;shadow=0;endArrow=none;startFill=0;" edge="1" parent="1" source="MFraPQOtkHAgBpR5GQGO-10" target="MFraPQOtkHAgBpR5GQGO-1">
          <mxGeometry relative="1" as="geometry" />
        </mxCell>
        <mxCell id="MFraPQOtkHAgBpR5GQGO-10" value="CreatedAt" style="ellipse;whiteSpace=wrap;html=1;align=center;shadow=0;" vertex="1" parent="1">
          <mxGeometry x="-230" y="140" width="100" height="40" as="geometry" />
        </mxCell>
        <mxCell id="MFraPQOtkHAgBpR5GQGO-18" style="rounded=0;orthogonalLoop=1;jettySize=auto;html=1;entryX=0;entryY=0.75;entryDx=0;entryDy=0;shadow=0;endArrow=none;startFill=0;" edge="1" parent="1" source="MFraPQOtkHAgBpR5GQGO-11" target="MFraPQOtkHAgBpR5GQGO-1">
          <mxGeometry relative="1" as="geometry" />
        </mxCell>
        <mxCell id="MFraPQOtkHAgBpR5GQGO-11" value="Email" style="ellipse;whiteSpace=wrap;html=1;align=center;shadow=0;" vertex="1" parent="1">
          <mxGeometry x="-230" y="210" width="100" height="40" as="geometry" />
        </mxCell>
        <mxCell id="MFraPQOtkHAgBpR5GQGO-15" style="rounded=0;orthogonalLoop=1;jettySize=auto;html=1;entryX=0.123;entryY=-0.042;entryDx=0;entryDy=0;entryPerimeter=0;shadow=0;endArrow=none;startFill=0;" edge="1" parent="1" source="MFraPQOtkHAgBpR5GQGO-5" target="MFraPQOtkHAgBpR5GQGO-1">
          <mxGeometry relative="1" as="geometry" />
        </mxCell>
        <mxCell id="MFraPQOtkHAgBpR5GQGO-26" style="rounded=0;orthogonalLoop=1;jettySize=auto;html=1;shadow=0;endArrow=none;startFill=0;entryX=0.171;entryY=-0.007;entryDx=0;entryDy=0;entryPerimeter=0;" edge="1" parent="1" source="MFraPQOtkHAgBpR5GQGO-19" target="MFraPQOtkHAgBpR5GQGO-2">
          <mxGeometry relative="1" as="geometry" />
        </mxCell>
        <mxCell id="MFraPQOtkHAgBpR5GQGO-19" value="&lt;span style=&quot;border-bottom: 1px dotted&quot;&gt;BookId&lt;/span&gt;" style="ellipse;whiteSpace=wrap;html=1;align=center;shadow=0;" vertex="1" parent="1">
          <mxGeometry x="620" y="-50" width="100" height="40" as="geometry" />
        </mxCell>
        <mxCell id="MFraPQOtkHAgBpR5GQGO-27" style="rounded=0;orthogonalLoop=1;jettySize=auto;html=1;entryX=0.25;entryY=0;entryDx=0;entryDy=0;shadow=0;endArrow=none;startFill=0;" edge="1" parent="1" source="MFraPQOtkHAgBpR5GQGO-20" target="MFraPQOtkHAgBpR5GQGO-2">
          <mxGeometry relative="1" as="geometry" />
        </mxCell>
        <mxCell id="MFraPQOtkHAgBpR5GQGO-20" value="Title" style="ellipse;whiteSpace=wrap;html=1;align=center;shadow=0;" vertex="1" parent="1">
          <mxGeometry x="727" y="-50" width="100" height="40" as="geometry" />
        </mxCell>
        <mxCell id="MFraPQOtkHAgBpR5GQGO-28" style="rounded=0;orthogonalLoop=1;jettySize=auto;html=1;shadow=0;endArrow=none;startFill=0;" edge="1" parent="1" source="MFraPQOtkHAgBpR5GQGO-21" target="MFraPQOtkHAgBpR5GQGO-2">
          <mxGeometry relative="1" as="geometry" />
        </mxCell>
        <mxCell id="MFraPQOtkHAgBpR5GQGO-21" value="Auther" style="ellipse;whiteSpace=wrap;html=1;align=center;shadow=0;" vertex="1" parent="1">
          <mxGeometry x="830" y="-50" width="100" height="40" as="geometry" />
        </mxCell>
        <mxCell id="MFraPQOtkHAgBpR5GQGO-22" value="ISBN" style="ellipse;whiteSpace=wrap;html=1;align=center;shadow=0;" vertex="1" parent="1">
          <mxGeometry x="950" y="-50" width="100" height="40" as="geometry" />
        </mxCell>
        <mxCell id="MFraPQOtkHAgBpR5GQGO-23" value="PublishedYear" style="ellipse;whiteSpace=wrap;html=1;align=center;shadow=0;" vertex="1" parent="1">
          <mxGeometry x="1060" y="-50" width="100" height="40" as="geometry" />
        </mxCell>
        <mxCell id="MFraPQOtkHAgBpR5GQGO-31" style="rounded=0;orthogonalLoop=1;jettySize=auto;html=1;entryX=0.75;entryY=0;entryDx=0;entryDy=0;shadow=0;endArrow=none;startFill=0;" edge="1" parent="1" source="MFraPQOtkHAgBpR5GQGO-24" target="MFraPQOtkHAgBpR5GQGO-2">
          <mxGeometry relative="1" as="geometry" />
        </mxCell>
        <mxCell id="MFraPQOtkHAgBpR5GQGO-24" value="Quantity" style="ellipse;whiteSpace=wrap;html=1;align=center;shadow=0;" vertex="1" parent="1">
          <mxGeometry x="1070" y="10" width="100" height="40" as="geometry" />
        </mxCell>
        <mxCell id="MFraPQOtkHAgBpR5GQGO-25" value="CreatedAt" style="ellipse;whiteSpace=wrap;html=1;align=center;shadow=0;" vertex="1" parent="1">
          <mxGeometry x="1080" y="70" width="100" height="40" as="geometry" />
        </mxCell>
        <mxCell id="MFraPQOtkHAgBpR5GQGO-29" style="rounded=0;orthogonalLoop=1;jettySize=auto;html=1;entryX=0.676;entryY=-0.007;entryDx=0;entryDy=0;entryPerimeter=0;shadow=0;endArrow=none;startFill=0;" edge="1" parent="1" source="MFraPQOtkHAgBpR5GQGO-22" target="MFraPQOtkHAgBpR5GQGO-2">
          <mxGeometry relative="1" as="geometry" />
        </mxCell>
        <mxCell id="MFraPQOtkHAgBpR5GQGO-30" style="rounded=0;orthogonalLoop=1;jettySize=auto;html=1;entryX=0.868;entryY=-0.071;entryDx=0;entryDy=0;entryPerimeter=0;shadow=0;endArrow=none;startFill=0;" edge="1" parent="1" source="MFraPQOtkHAgBpR5GQGO-23" target="MFraPQOtkHAgBpR5GQGO-2">
          <mxGeometry relative="1" as="geometry" />
        </mxCell>
        <mxCell id="MFraPQOtkHAgBpR5GQGO-32" style="rounded=0;orthogonalLoop=1;jettySize=auto;html=1;entryX=1;entryY=0;entryDx=0;entryDy=0;shadow=0;endArrow=none;startFill=0;" edge="1" parent="1" source="MFraPQOtkHAgBpR5GQGO-25" target="MFraPQOtkHAgBpR5GQGO-2">
          <mxGeometry relative="1" as="geometry" />
        </mxCell>
        <mxCell id="MFraPQOtkHAgBpR5GQGO-36" style="rounded=0;orthogonalLoop=1;jettySize=auto;html=1;entryX=0;entryY=0.75;entryDx=0;entryDy=0;shadow=0;endArrow=none;startFill=0;" edge="1" parent="1" source="MFraPQOtkHAgBpR5GQGO-33" target="MFraPQOtkHAgBpR5GQGO-3">
          <mxGeometry relative="1" as="geometry" />
        </mxCell>
        <mxCell id="MFraPQOtkHAgBpR5GQGO-33" value="&lt;span style=&quot;border-bottom: 1px dotted&quot;&gt;LogId&lt;/span&gt;" style="ellipse;whiteSpace=wrap;html=1;align=center;shadow=0;" vertex="1" parent="1">
          <mxGeometry x="-30" y="530" width="100" height="40" as="geometry" />
        </mxCell>
        <mxCell id="MFraPQOtkHAgBpR5GQGO-34" value="Action" style="ellipse;whiteSpace=wrap;html=1;align=center;shadow=0;" vertex="1" parent="1">
          <mxGeometry x="90" y="530" width="100" height="40" as="geometry" />
        </mxCell>
        <mxCell id="MFraPQOtkHAgBpR5GQGO-35" value="PerformedAt" style="ellipse;whiteSpace=wrap;html=1;align=center;shadow=0;" vertex="1" parent="1">
          <mxGeometry x="200" y="530" width="100" height="40" as="geometry" />
        </mxCell>
        <mxCell id="MFraPQOtkHAgBpR5GQGO-37" style="rounded=0;orthogonalLoop=1;jettySize=auto;html=1;entryX=0.425;entryY=1.019;entryDx=0;entryDy=0;entryPerimeter=0;shadow=0;endArrow=none;startFill=0;" edge="1" parent="1" source="MFraPQOtkHAgBpR5GQGO-34" target="MFraPQOtkHAgBpR5GQGO-3">
          <mxGeometry relative="1" as="geometry" />
        </mxCell>
        <mxCell id="MFraPQOtkHAgBpR5GQGO-38" style="rounded=0;orthogonalLoop=1;jettySize=auto;html=1;entryX=0.654;entryY=1;entryDx=0;entryDy=0;entryPerimeter=0;shadow=0;endArrow=none;startFill=0;" edge="1" parent="1" source="MFraPQOtkHAgBpR5GQGO-35" target="MFraPQOtkHAgBpR5GQGO-3">
          <mxGeometry relative="1" as="geometry" />
        </mxCell>
        <mxCell id="MFraPQOtkHAgBpR5GQGO-41" style="rounded=0;orthogonalLoop=1;jettySize=auto;html=1;entryX=0.25;entryY=1;entryDx=0;entryDy=0;shadow=0;endArrow=none;startFill=0;" edge="1" parent="1" source="MFraPQOtkHAgBpR5GQGO-39" target="MFraPQOtkHAgBpR5GQGO-4">
          <mxGeometry relative="1" as="geometry" />
        </mxCell>
        <mxCell id="MFraPQOtkHAgBpR5GQGO-39" value="&lt;span style=&quot;border-bottom: 1px dotted&quot;&gt;CategoryId&lt;/span&gt;" style="ellipse;whiteSpace=wrap;html=1;align=center;shadow=0;" vertex="1" parent="1">
          <mxGeometry x="580" y="490" width="100" height="40" as="geometry" />
        </mxCell>
        <mxCell id="MFraPQOtkHAgBpR5GQGO-42" style="rounded=0;orthogonalLoop=1;jettySize=auto;html=1;entryX=0.5;entryY=1;entryDx=0;entryDy=0;shadow=0;endArrow=none;startFill=0;" edge="1" parent="1" source="MFraPQOtkHAgBpR5GQGO-40" target="MFraPQOtkHAgBpR5GQGO-4">
          <mxGeometry relative="1" as="geometry" />
        </mxCell>
        <mxCell id="MFraPQOtkHAgBpR5GQGO-40" value="Name" style="ellipse;whiteSpace=wrap;html=1;align=center;shadow=0;" vertex="1" parent="1">
          <mxGeometry x="700" y="490" width="100" height="40" as="geometry" />
        </mxCell>
        <mxCell id="MFraPQOtkHAgBpR5GQGO-48" style="rounded=0;orthogonalLoop=1;jettySize=auto;html=1;entryX=0.5;entryY=0;entryDx=0;entryDy=0;shadow=0;endArrow=none;startFill=0;" edge="1" parent="1" source="MFraPQOtkHAgBpR5GQGO-44" target="MFraPQOtkHAgBpR5GQGO-3">
          <mxGeometry relative="1" as="geometry" />
        </mxCell>
        <mxCell id="MFraPQOtkHAgBpR5GQGO-44" value="Have" style="shape=rhombus;perimeter=rhombusPerimeter;whiteSpace=wrap;html=1;align=center;shadow=0;" vertex="1" parent="1">
          <mxGeometry x="90" y="260" width="120" height="60" as="geometry" />
        </mxCell>
        <mxCell id="MFraPQOtkHAgBpR5GQGO-49" value="1" style="text;html=1;align=center;verticalAlign=middle;resizable=0;points=[];autosize=1;strokeColor=none;fillColor=none;shadow=0;" vertex="1" parent="1">
          <mxGeometry x="160" y="190" width="30" height="30" as="geometry" />
        </mxCell>
        <mxCell id="MFraPQOtkHAgBpR5GQGO-50" value="M" style="text;html=1;align=center;verticalAlign=middle;resizable=0;points=[];autosize=1;strokeColor=none;fillColor=none;shadow=0;" vertex="1" parent="1">
          <mxGeometry x="160" y="360" width="30" height="30" as="geometry" />
        </mxCell>
        <mxCell id="MFraPQOtkHAgBpR5GQGO-53" style="rounded=0;orthogonalLoop=1;jettySize=auto;html=1;shadow=0;endArrow=none;startFill=0;" edge="1" parent="1" source="MFraPQOtkHAgBpR5GQGO-51" target="MFraPQOtkHAgBpR5GQGO-4">
          <mxGeometry relative="1" as="geometry" />
        </mxCell>
        <mxCell id="MFraPQOtkHAgBpR5GQGO-51" value="Have" style="shape=rhombus;perimeter=rhombusPerimeter;whiteSpace=wrap;html=1;align=center;shadow=0;" vertex="1" parent="1">
          <mxGeometry x="640" y="260" width="120" height="60" as="geometry" />
        </mxCell>
        <mxCell id="MFraPQOtkHAgBpR5GQGO-54" value="M" style="text;html=1;align=center;verticalAlign=middle;resizable=0;points=[];autosize=1;strokeColor=none;fillColor=none;shadow=0;" vertex="1" parent="1">
          <mxGeometry x="705" y="178" width="30" height="30" as="geometry" />
        </mxCell>
        <mxCell id="MFraPQOtkHAgBpR5GQGO-55" value="1" style="text;html=1;align=center;verticalAlign=middle;resizable=0;points=[];autosize=1;strokeColor=none;fillColor=none;shadow=0;" vertex="1" parent="1">
          <mxGeometry x="705" y="358" width="30" height="30" as="geometry" />
        </mxCell>
        <mxCell id="MFraPQOtkHAgBpR5GQGO-65" style="rounded=0;orthogonalLoop=1;jettySize=auto;html=1;entryX=0;entryY=0.5;entryDx=0;entryDy=0;shadow=0;endArrow=none;startFill=0;exitX=0.863;exitY=0.674;exitDx=0;exitDy=0;exitPerimeter=0;" edge="1" parent="1" source="MFraPQOtkHAgBpR5GQGO-56" target="MFraPQOtkHAgBpR5GQGO-2">
          <mxGeometry relative="1" as="geometry" />
        </mxCell>
        <mxCell id="MFraPQOtkHAgBpR5GQGO-56" value="Borrow" style="shape=rhombus;perimeter=rhombusPerimeter;whiteSpace=wrap;html=1;align=center;shadow=0;" vertex="1" parent="1">
          <mxGeometry x="360" y="130" width="120" height="60" as="geometry" />
        </mxCell>
        <mxCell id="MFraPQOtkHAgBpR5GQGO-61" style="rounded=0;orthogonalLoop=1;jettySize=auto;html=1;entryX=0;entryY=0.5;entryDx=0;entryDy=0;shadow=0;endArrow=none;startFill=0;" edge="1" parent="1" source="MFraPQOtkHAgBpR5GQGO-57" target="MFraPQOtkHAgBpR5GQGO-56">
          <mxGeometry relative="1" as="geometry" />
        </mxCell>
        <mxCell id="MFraPQOtkHAgBpR5GQGO-57" value="BorrowDate" style="ellipse;whiteSpace=wrap;html=1;align=center;shadow=0;" vertex="1" parent="1">
          <mxGeometry x="210" y="70" width="100" height="40" as="geometry" />
        </mxCell>
        <mxCell id="MFraPQOtkHAgBpR5GQGO-58" value="DueDate" style="ellipse;whiteSpace=wrap;html=1;align=center;shadow=0;" vertex="1" parent="1">
          <mxGeometry x="314" y="70" width="100" height="40" as="geometry" />
        </mxCell>
        <mxCell id="MFraPQOtkHAgBpR5GQGO-63" style="rounded=0;orthogonalLoop=1;jettySize=auto;html=1;entryX=0.5;entryY=0;entryDx=0;entryDy=0;shadow=0;endArrow=none;startFill=0;" edge="1" parent="1" source="MFraPQOtkHAgBpR5GQGO-59" target="MFraPQOtkHAgBpR5GQGO-56">
          <mxGeometry relative="1" as="geometry" />
        </mxCell>
        <mxCell id="MFraPQOtkHAgBpR5GQGO-59" value="ReturnDate" style="ellipse;whiteSpace=wrap;html=1;align=center;shadow=0;" vertex="1" parent="1">
          <mxGeometry x="420" y="70" width="100" height="40" as="geometry" />
        </mxCell>
        <mxCell id="MFraPQOtkHAgBpR5GQGO-60" value="Status" style="ellipse;whiteSpace=wrap;html=1;align=center;shadow=0;" vertex="1" parent="1">
          <mxGeometry x="530" y="70" width="100" height="40" as="geometry" />
        </mxCell>
        <mxCell id="MFraPQOtkHAgBpR5GQGO-62" style="rounded=0;orthogonalLoop=1;jettySize=auto;html=1;entryX=0.13;entryY=0.399;entryDx=0;entryDy=0;entryPerimeter=0;shadow=0;endArrow=none;startFill=0;" edge="1" parent="1" source="MFraPQOtkHAgBpR5GQGO-58" target="MFraPQOtkHAgBpR5GQGO-56">
          <mxGeometry relative="1" as="geometry" />
        </mxCell>
        <mxCell id="MFraPQOtkHAgBpR5GQGO-64" style="rounded=0;orthogonalLoop=1;jettySize=auto;html=1;entryX=0.938;entryY=0.54;entryDx=0;entryDy=0;entryPerimeter=0;shadow=0;endArrow=none;startFill=0;" edge="1" parent="1" source="MFraPQOtkHAgBpR5GQGO-60" target="MFraPQOtkHAgBpR5GQGO-56">
          <mxGeometry relative="1" as="geometry" />
        </mxCell>
        <mxCell id="MFraPQOtkHAgBpR5GQGO-66" style="rounded=0;orthogonalLoop=1;jettySize=auto;html=1;entryX=0.132;entryY=0.642;entryDx=0;entryDy=0;entryPerimeter=0;shadow=0;endArrow=none;startFill=0;" edge="1" parent="1" source="MFraPQOtkHAgBpR5GQGO-1" target="MFraPQOtkHAgBpR5GQGO-56">
          <mxGeometry relative="1" as="geometry" />
        </mxCell>
        <mxCell id="MFraPQOtkHAgBpR5GQGO-67" value="M" style="text;html=1;align=center;verticalAlign=middle;resizable=0;points=[];autosize=1;strokeColor=none;fillColor=none;shadow=0;" vertex="1" parent="1">
          <mxGeometry x="195" y="138" width="30" height="30" as="geometry" />
        </mxCell>
        <mxCell id="MFraPQOtkHAgBpR5GQGO-68" value="M" style="text;html=1;align=center;verticalAlign=middle;resizable=0;points=[];autosize=1;strokeColor=none;fillColor=none;shadow=0;" vertex="1" parent="1">
          <mxGeometry x="620" y="138" width="30" height="30" as="geometry" />
        </mxCell>
      </root>
    </mxGraphModel>
  </diagram>
</mxfile>
